<?xml version="1.0" encoding="utf-8" standalone="no"?>
<!DOCTYPE svg PUBLIC "-//W3C//DTD SVG 1.1//EN"
  "http://www.w3.org/Graphics/SVG/1.1/DTD/svg11.dtd">
<svg xmlns:xlink="http://www.w3.org/1999/xlink" width="440.84429pt" height="291.202688pt" viewBox="0 0 440.84429 291.202688" xmlns="http://www.w3.org/2000/svg" version="1.1">
 <metadata>
  <rdf:RDF xmlns:dc="http://purl.org/dc/elements/1.1/" xmlns:cc="http://creativecommons.org/ns#" xmlns:rdf="http://www.w3.org/1999/02/22-rdf-syntax-ns#">
   <cc:Work>
    <dc:type rdf:resource="http://purl.org/dc/dcmitype/StillImage"/>
    <dc:date>2026-07-20T23:49:43.830428</dc:date>
    <dc:format>image/svg+xml</dc:format>
    <dc:creator>
     <cc:Agent>
      <dc:title>Matplotlib v3.10.9, https://matplotlib.org/</dc:title>
     </cc:Agent>
    </dc:creator>
   </cc:Work>
  </rdf:RDF>
 </metadata>
 <defs>
  <style type="text/css">*{stroke-linejoin: round; stroke-linecap: butt}</style>
 </defs>
 <g id="figure_1">
  <g id="patch_1">
   <path d="M 0 291.202688 
L 440.84429 291.202688 
L 440.84429 0 
L 0 0 
z
" style="fill: #ffffff"/>
  </g>
  <g id="axes_1">
   <g id="patch_2">
    <path d="M 50.14375 253.646438 
L 429.58375 253.646438 
L 429.58375 20.798437 
L 50.14375 20.798437 
z
" style="fill: #ffffff"/>
   </g>
   <g id="PathCollection_1"/>
   <g id="PathCollection_2"/>
   <g id="PathCollection_3"/>
   <g id="PathCollection_4"/>
   <g id="matplotlib.axis_1">
    <g id="xtick_1">
     <g id="line2d_1">
      <defs>
       <path id="mbff08cf919" d="M 0 0 
L 0 3.5 
" style="stroke: #000000; stroke-width: 0.8"/>
      </defs>
      <g>
       <use xlink:href="#mbff08cf919" x="58.546267" y="253.646438" style="stroke: #000000; stroke-width: 0.8"/>
      </g>
     </g>
     <g id="text_1">
      <!-- 0 -->
      <g transform="translate(55.365017 268.244875) scale(0.1 -0.1)">
       <defs>
        <path id="DejaVuSans-30" d="M 2034 4250 
Q 1547 4250 1301 3770 
Q 1056 3291 1056 2328 
Q 1056 1369 1301 889 
Q 1547 409 2034 409 
Q 2525 409 2770 889 
Q 3016 1369 3016 2328 
Q 3016 3291 2770 3770 
Q 2525 4250 2034 4250 
z
M 2034 4750 
Q 2819 4750 3233 4129 
Q 3647 3509 3647 2328 
Q 3647 1150 3233 529 
Q 2819 -91 2034 -91 
Q 1250 -91 836 529 
Q 422 1150 422 2328 
Q 422 3509 836 4129 
Q 1250 4750 2034 4750 
z
" transform="scale(0.015625)"/>
       </defs>
       <use xlink:href="#DejaVuSans-30"/>
      </g>
     </g>
    </g>
    <g id="xtick_2">
     <g id="line2d_2">
      <g>
       <use xlink:href="#mbff08cf919" x="102.770044" y="253.646438" style="stroke: #000000; stroke-width: 0.8"/>
      </g>
     </g>
     <g id="text_2">
      <!-- 5 -->
      <g transform="translate(99.588794 268.244875) scale(0.1 -0.1)">
       <defs>
        <path id="DejaVuSans-35" d="M 691 4666 
L 3169 4666 
L 3169 4134 
L 1269 4134 
L 1269 2991 
Q 1406 3038 1543 3061 
Q 1681 3084 1819 3084 
Q 2600 3084 3056 2656 
Q 3513 2228 3513 1497 
Q 3513 744 3044 326 
Q 2575 -91 1722 -91 
Q 1428 -91 1123 -41 
Q 819 9 494 109 
L 494 744 
Q 775 591 1075 516 
Q 1375 441 1709 441 
Q 2250 441 2565 725 
Q 2881 1009 2881 1497 
Q 2881 1984 2565 2268 
Q 2250 2553 1709 2553 
Q 1456 2553 1204 2497 
Q 953 2441 691 2322 
L 691 4666 
z
" transform="scale(0.015625)"/>
       </defs>
       <use xlink:href="#DejaVuSans-35"/>
      </g>
     </g>
    </g>
    <g id="xtick_3">
     <g id="line2d_3">
      <g>
       <use xlink:href="#mbff08cf919" x="146.99382" y="253.646438" style="stroke: #000000; stroke-width: 0.8"/>
      </g>
     </g>
     <g id="text_3">
      <!-- 10 -->
      <g transform="translate(140.63132 268.244875) scale(0.1 -0.1)">
       <defs>
        <path id="DejaVuSans-31" d="M 794 531 
L 1825 531 
L 1825 4091 
L 703 3866 
L 703 4441 
L 1819 4666 
L 2450 4666 
L 2450 531 
L 3481 531 
L 3481 0 
L 794 0 
L 794 531 
z
" transform="scale(0.015625)"/>
       </defs>
       <use xlink:href="#DejaVuSans-31"/>
       <use xlink:href="#DejaVuSans-30" transform="translate(63.623047 0)"/>
      </g>
     </g>
    </g>
    <g id="xtick_4">
     <g id="line2d_4">
      <g>
       <use xlink:href="#mbff08cf919" x="191.217596" y="253.646438" style="stroke: #000000; stroke-width: 0.8"/>
      </g>
     </g>
     <g id="text_4">
      <!-- 15 -->
      <g transform="translate(184.855096 268.244875) scale(0.1 -0.1)">
       <use xlink:href="#DejaVuSans-31"/>
       <use xlink:href="#DejaVuSans-35" transform="translate(63.623047 0)"/>
      </g>
     </g>
    </g>
    <g id="xtick_5">
     <g id="line2d_5">
      <g>
       <use xlink:href="#mbff08cf919" x="235.441372" y="253.646438" style="stroke: #000000; stroke-width: 0.8"/>
      </g>
     </g>
     <g id="text_5">
      <!-- 20 -->
      <g transform="translate(229.078872 268.244875) scale(0.1 -0.1)">
       <defs>
        <path id="DejaVuSans-32" d="M 1228 531 
L 3431 531 
L 3431 0 
L 469 0 
L 469 531 
Q 828 903 1448 1529 
Q 2069 2156 2228 2338 
Q 2531 2678 2651 2914 
Q 2772 3150 2772 3378 
Q 2772 3750 2511 3984 
Q 2250 4219 1831 4219 
Q 1534 4219 1204 4116 
Q 875 4013 500 3803 
L 500 4441 
Q 881 4594 1212 4672 
Q 1544 4750 1819 4750 
Q 2544 4750 2975 4387 
Q 3406 4025 3406 3419 
Q 3406 3131 3298 2873 
Q 3191 2616 2906 2266 
Q 2828 2175 2409 1742 
Q 1991 1309 1228 531 
z
" transform="scale(0.015625)"/>
       </defs>
       <use xlink:href="#DejaVuSans-32"/>
       <use xlink:href="#DejaVuSans-30" transform="translate(63.623047 0)"/>
      </g>
     </g>
    </g>
    <g id="xtick_6">
     <g id="line2d_6">
      <g>
       <use xlink:href="#mbff08cf919" x="279.665149" y="253.646438" style="stroke: #000000; stroke-width: 0.8"/>
      </g>
     </g>
     <g id="text_6">
      <!-- 25 -->
      <g transform="translate(273.302649 268.244875) scale(0.1 -0.1)">
       <use xlink:href="#DejaVuSans-32"/>
       <use xlink:href="#DejaVuSans-35" transform="translate(63.623047 0)"/>
      </g>
     </g>
    </g>
    <g id="xtick_7">
     <g id="line2d_7">
      <g>
       <use xlink:href="#mbff08cf919" x="323.888925" y="253.646438" style="stroke: #000000; stroke-width: 0.8"/>
      </g>
     </g>
     <g id="text_7">
      <!-- 30 -->
      <g transform="translate(317.526425 268.244875) scale(0.1 -0.1)">
       <defs>
        <path id="DejaVuSans-33" d="M 2597 2516 
Q 3050 2419 3304 2112 
Q 3559 1806 3559 1356 
Q 3559 666 3084 287 
Q 2609 -91 1734 -91 
Q 1441 -91 1130 -33 
Q 819 25 488 141 
L 488 750 
Q 750 597 1062 519 
Q 1375 441 1716 441 
Q 2309 441 2620 675 
Q 2931 909 2931 1356 
Q 2931 1769 2642 2001 
Q 2353 2234 1838 2234 
L 1294 2234 
L 1294 2753 
L 1863 2753 
Q 2328 2753 2575 2939 
Q 2822 3125 2822 3475 
Q 2822 3834 2567 4026 
Q 2313 4219 1838 4219 
Q 1578 4219 1281 4162 
Q 984 4106 628 3988 
L 628 4550 
Q 988 4650 1302 4700 
Q 1616 4750 1894 4750 
Q 2613 4750 3031 4423 
Q 3450 4097 3450 3541 
Q 3450 3153 3228 2886 
Q 3006 2619 2597 2516 
z
" transform="scale(0.015625)"/>
       </defs>
       <use xlink:href="#DejaVuSans-33"/>
       <use xlink:href="#DejaVuSans-30" transform="translate(63.623047 0)"/>
      </g>
     </g>
    </g>
    <g id="xtick_8">
     <g id="line2d_8">
      <g>
       <use xlink:href="#mbff08cf919" x="368.112701" y="253.646438" style="stroke: #000000; stroke-width: 0.8"/>
      </g>
     </g>
     <g id="text_8">
      <!-- 35 -->
      <g transform="translate(361.750201 268.244875) scale(0.1 -0.1)">
       <use xlink:href="#DejaVuSans-33"/>
       <use xlink:href="#DejaVuSans-35" transform="translate(63.623047 0)"/>
      </g>
     </g>
    </g>
    <g id="xtick_9">
     <g id="line2d_9">
      <g>
       <use xlink:href="#mbff08cf919" x="412.336477" y="253.646438" style="stroke: #000000; stroke-width: 0.8"/>
      </g>
     </g>
     <g id="text_9">
      <!-- 40 -->
      <g transform="translate(405.973977 268.244875) scale(0.1 -0.1)">
       <defs>
        <path id="DejaVuSans-34" d="M 2419 4116 
L 825 1625 
L 2419 1625 
L 2419 4116 
z
M 2253 4666 
L 3047 4666 
L 3047 1625 
L 3713 1625 
L 3713 1100 
L 3047 1100 
L 3047 0 
L 2419 0 
L 2419 1100 
L 313 1100 
L 313 1709 
L 2253 4666 
z
" transform="scale(0.015625)"/>
       </defs>
       <use xlink:href="#DejaVuSans-34"/>
       <use xlink:href="#DejaVuSans-30" transform="translate(63.623047 0)"/>
      </g>
     </g>
    </g>
    <g id="text_10">
     <!-- remaining same-loop physical layers (48 - layer) -->
     <g transform="translate(118.723906 281.923) scale(0.1 -0.1)">
      <defs>
       <path id="DejaVuSans-72" d="M 2631 2963 
Q 2534 3019 2420 3045 
Q 2306 3072 2169 3072 
Q 1681 3072 1420 2755 
Q 1159 2438 1159 1844 
L 1159 0 
L 581 0 
L 581 3500 
L 1159 3500 
L 1159 2956 
Q 1341 3275 1631 3429 
Q 1922 3584 2338 3584 
Q 2397 3584 2469 3576 
Q 2541 3569 2628 3553 
L 2631 2963 
z
" transform="scale(0.015625)"/>
       <path id="DejaVuSans-65" d="M 3597 1894 
L 3597 1613 
L 953 1613 
Q 991 1019 1311 708 
Q 1631 397 2203 397 
Q 2534 397 2845 478 
Q 3156 559 3463 722 
L 3463 178 
Q 3153 47 2828 -22 
Q 2503 -91 2169 -91 
Q 1331 -91 842 396 
Q 353 884 353 1716 
Q 353 2575 817 3079 
Q 1281 3584 2069 3584 
Q 2775 3584 3186 3129 
Q 3597 2675 3597 1894 
z
M 3022 2063 
Q 3016 2534 2758 2815 
Q 2500 3097 2075 3097 
Q 1594 3097 1305 2825 
Q 1016 2553 972 2059 
L 3022 2063 
z
" transform="scale(0.015625)"/>
       <path id="DejaVuSans-6d" d="M 3328 2828 
Q 3544 3216 3844 3400 
Q 4144 3584 4550 3584 
Q 5097 3584 5394 3201 
Q 5691 2819 5691 2113 
L 5691 0 
L 5113 0 
L 5113 2094 
Q 5113 2597 4934 2840 
Q 4756 3084 4391 3084 
Q 3944 3084 3684 2787 
Q 3425 2491 3425 1978 
L 3425 0 
L 2847 0 
L 2847 2094 
Q 2847 2600 2669 2842 
Q 2491 3084 2119 3084 
Q 1678 3084 1418 2786 
Q 1159 2488 1159 1978 
L 1159 0 
L 581 0 
L 581 3500 
L 1159 3500 
L 1159 2956 
Q 1356 3278 1631 3431 
Q 1906 3584 2284 3584 
Q 2666 3584 2933 3390 
Q 3200 3197 3328 2828 
z
" transform="scale(0.015625)"/>
       <path id="DejaVuSans-61" d="M 2194 1759 
Q 1497 1759 1228 1600 
Q 959 1441 959 1056 
Q 959 750 1161 570 
Q 1363 391 1709 391 
Q 2188 391 2477 730 
Q 2766 1069 2766 1631 
L 2766 1759 
L 2194 1759 
z
M 3341 1997 
L 3341 0 
L 2766 0 
L 2766 531 
Q 2569 213 2275 61 
Q 1981 -91 1556 -91 
Q 1019 -91 701 211 
Q 384 513 384 1019 
Q 384 1609 779 1909 
Q 1175 2209 1959 2209 
L 2766 2209 
L 2766 2266 
Q 2766 2663 2505 2880 
Q 2244 3097 1772 3097 
Q 1472 3097 1187 3025 
Q 903 2953 641 2809 
L 641 3341 
Q 956 3463 1253 3523 
Q 1550 3584 1831 3584 
Q 2591 3584 2966 3190 
Q 3341 2797 3341 1997 
z
" transform="scale(0.015625)"/>
       <path id="DejaVuSans-69" d="M 603 3500 
L 1178 3500 
L 1178 0 
L 603 0 
L 603 3500 
z
M 603 4863 
L 1178 4863 
L 1178 4134 
L 603 4134 
L 603 4863 
z
" transform="scale(0.015625)"/>
       <path id="DejaVuSans-6e" d="M 3513 2113 
L 3513 0 
L 2938 0 
L 2938 2094 
Q 2938 2591 2744 2837 
Q 2550 3084 2163 3084 
Q 1697 3084 1428 2787 
Q 1159 2491 1159 1978 
L 1159 0 
L 581 0 
L 581 3500 
L 1159 3500 
L 1159 2956 
Q 1366 3272 1645 3428 
Q 1925 3584 2291 3584 
Q 2894 3584 3203 3211 
Q 3513 2838 3513 2113 
z
" transform="scale(0.015625)"/>
       <path id="DejaVuSans-67" d="M 2906 1791 
Q 2906 2416 2648 2759 
Q 2391 3103 1925 3103 
Q 1463 3103 1205 2759 
Q 947 2416 947 1791 
Q 947 1169 1205 825 
Q 1463 481 1925 481 
Q 2391 481 2648 825 
Q 2906 1169 2906 1791 
z
M 3481 434 
Q 3481 -459 3084 -895 
Q 2688 -1331 1869 -1331 
Q 1566 -1331 1297 -1286 
Q 1028 -1241 775 -1147 
L 775 -588 
Q 1028 -725 1275 -790 
Q 1522 -856 1778 -856 
Q 2344 -856 2625 -561 
Q 2906 -266 2906 331 
L 2906 616 
Q 2728 306 2450 153 
Q 2172 0 1784 0 
Q 1141 0 747 490 
Q 353 981 353 1791 
Q 353 2603 747 3093 
Q 1141 3584 1784 3584 
Q 2172 3584 2450 3431 
Q 2728 3278 2906 2969 
L 2906 3500 
L 3481 3500 
L 3481 434 
z
" transform="scale(0.015625)"/>
       <path id="DejaVuSans-20" transform="scale(0.015625)"/>
       <path id="DejaVuSans-73" d="M 2834 3397 
L 2834 2853 
Q 2591 2978 2328 3040 
Q 2066 3103 1784 3103 
Q 1356 3103 1142 2972 
Q 928 2841 928 2578 
Q 928 2378 1081 2264 
Q 1234 2150 1697 2047 
L 1894 2003 
Q 2506 1872 2764 1633 
Q 3022 1394 3022 966 
Q 3022 478 2636 193 
Q 2250 -91 1575 -91 
Q 1294 -91 989 -36 
Q 684 19 347 128 
L 347 722 
Q 666 556 975 473 
Q 1284 391 1588 391 
Q 1994 391 2212 530 
Q 2431 669 2431 922 
Q 2431 1156 2273 1281 
Q 2116 1406 1581 1522 
L 1381 1569 
Q 847 1681 609 1914 
Q 372 2147 372 2553 
Q 372 3047 722 3315 
Q 1072 3584 1716 3584 
Q 2034 3584 2315 3537 
Q 2597 3491 2834 3397 
z
" transform="scale(0.015625)"/>
       <path id="DejaVuSans-2d" d="M 313 2009 
L 1997 2009 
L 1997 1497 
L 313 1497 
L 313 2009 
z
" transform="scale(0.015625)"/>
       <path id="DejaVuSans-6c" d="M 603 4863 
L 1178 4863 
L 1178 0 
L 603 0 
L 603 4863 
z
" transform="scale(0.015625)"/>
       <path id="DejaVuSans-6f" d="M 1959 3097 
Q 1497 3097 1228 2736 
Q 959 2375 959 1747 
Q 959 1119 1226 758 
Q 1494 397 1959 397 
Q 2419 397 2687 759 
Q 2956 1122 2956 1747 
Q 2956 2369 2687 2733 
Q 2419 3097 1959 3097 
z
M 1959 3584 
Q 2709 3584 3137 3096 
Q 3566 2609 3566 1747 
Q 3566 888 3137 398 
Q 2709 -91 1959 -91 
Q 1206 -91 779 398 
Q 353 888 353 1747 
Q 353 2609 779 3096 
Q 1206 3584 1959 3584 
z
" transform="scale(0.015625)"/>
       <path id="DejaVuSans-70" d="M 1159 525 
L 1159 -1331 
L 581 -1331 
L 581 3500 
L 1159 3500 
L 1159 2969 
Q 1341 3281 1617 3432 
Q 1894 3584 2278 3584 
Q 2916 3584 3314 3078 
Q 3713 2572 3713 1747 
Q 3713 922 3314 415 
Q 2916 -91 2278 -91 
Q 1894 -91 1617 61 
Q 1341 213 1159 525 
z
M 3116 1747 
Q 3116 2381 2855 2742 
Q 2594 3103 2138 3103 
Q 1681 3103 1420 2742 
Q 1159 2381 1159 1747 
Q 1159 1113 1420 752 
Q 1681 391 2138 391 
Q 2594 391 2855 752 
Q 3116 1113 3116 1747 
z
" transform="scale(0.015625)"/>
       <path id="DejaVuSans-68" d="M 3513 2113 
L 3513 0 
L 2938 0 
L 2938 2094 
Q 2938 2591 2744 2837 
Q 2550 3084 2163 3084 
Q 1697 3084 1428 2787 
Q 1159 2491 1159 1978 
L 1159 0 
L 581 0 
L 581 4863 
L 1159 4863 
L 1159 2956 
Q 1366 3272 1645 3428 
Q 1925 3584 2291 3584 
Q 2894 3584 3203 3211 
Q 3513 2838 3513 2113 
z
" transform="scale(0.015625)"/>
       <path id="DejaVuSans-79" d="M 2059 -325 
Q 1816 -950 1584 -1140 
Q 1353 -1331 966 -1331 
L 506 -1331 
L 506 -850 
L 844 -850 
Q 1081 -850 1212 -737 
Q 1344 -625 1503 -206 
L 1606 56 
L 191 3500 
L 800 3500 
L 1894 763 
L 2988 3500 
L 3597 3500 
L 2059 -325 
z
" transform="scale(0.015625)"/>
       <path id="DejaVuSans-63" d="M 3122 3366 
L 3122 2828 
Q 2878 2963 2633 3030 
Q 2388 3097 2138 3097 
Q 1578 3097 1268 2742 
Q 959 2388 959 1747 
Q 959 1106 1268 751 
Q 1578 397 2138 397 
Q 2388 397 2633 464 
Q 2878 531 3122 666 
L 3122 134 
Q 2881 22 2623 -34 
Q 2366 -91 2075 -91 
Q 1284 -91 818 406 
Q 353 903 353 1747 
Q 353 2603 823 3093 
Q 1294 3584 2113 3584 
Q 2378 3584 2631 3529 
Q 2884 3475 3122 3366 
z
" transform="scale(0.015625)"/>
       <path id="DejaVuSans-28" d="M 1984 4856 
Q 1566 4138 1362 3434 
Q 1159 2731 1159 2009 
Q 1159 1288 1364 580 
Q 1569 -128 1984 -844 
L 1484 -844 
Q 1016 -109 783 600 
Q 550 1309 550 2009 
Q 550 2706 781 3412 
Q 1013 4119 1484 4856 
L 1984 4856 
z
" transform="scale(0.015625)"/>
       <path id="DejaVuSans-38" d="M 2034 2216 
Q 1584 2216 1326 1975 
Q 1069 1734 1069 1313 
Q 1069 891 1326 650 
Q 1584 409 2034 409 
Q 2484 409 2743 651 
Q 3003 894 3003 1313 
Q 3003 1734 2745 1975 
Q 2488 2216 2034 2216 
z
M 1403 2484 
Q 997 2584 770 2862 
Q 544 3141 544 3541 
Q 544 4100 942 4425 
Q 1341 4750 2034 4750 
Q 2731 4750 3128 4425 
Q 3525 4100 3525 3541 
Q 3525 3141 3298 2862 
Q 3072 2584 2669 2484 
Q 3125 2378 3379 2068 
Q 3634 1759 3634 1313 
Q 3634 634 3220 271 
Q 2806 -91 2034 -91 
Q 1263 -91 848 271 
Q 434 634 434 1313 
Q 434 1759 690 2068 
Q 947 2378 1403 2484 
z
M 1172 3481 
Q 1172 3119 1398 2916 
Q 1625 2713 2034 2713 
Q 2441 2713 2670 2916 
Q 2900 3119 2900 3481 
Q 2900 3844 2670 4047 
Q 2441 4250 2034 4250 
Q 1625 4250 1398 4047 
Q 1172 3844 1172 3481 
z
" transform="scale(0.015625)"/>
       <path id="DejaVuSans-29" d="M 513 4856 
L 1013 4856 
Q 1481 4119 1714 3412 
Q 1947 2706 1947 2009 
Q 1947 1309 1714 600 
Q 1481 -109 1013 -844 
L 513 -844 
Q 928 -128 1133 580 
Q 1338 1288 1338 2009 
Q 1338 2731 1133 3434 
Q 928 4138 513 4856 
z
" transform="scale(0.015625)"/>
      </defs>
      <use xlink:href="#DejaVuSans-72"/>
      <use xlink:href="#DejaVuSans-65" transform="translate(38.863281 0)"/>
      <use xlink:href="#DejaVuSans-6d" transform="translate(100.386719 0)"/>
      <use xlink:href="#DejaVuSans-61" transform="translate(197.798828 0)"/>
      <use xlink:href="#DejaVuSans-69" transform="translate(259.078125 0)"/>
      <use xlink:href="#DejaVuSans-6e" transform="translate(286.861328 0)"/>
      <use xlink:href="#DejaVuSans-69" transform="translate(350.240234 0)"/>
      <use xlink:href="#DejaVuSans-6e" transform="translate(378.023438 0)"/>
      <use xlink:href="#DejaVuSans-67" transform="translate(441.402344 0)"/>
      <use xlink:href="#DejaVuSans-20" transform="translate(504.878906 0)"/>
      <use xlink:href="#DejaVuSans-73" transform="translate(536.666016 0)"/>
      <use xlink:href="#DejaVuSans-61" transform="translate(588.765625 0)"/>
      <use xlink:href="#DejaVuSans-6d" transform="translate(650.044922 0)"/>
      <use xlink:href="#DejaVuSans-65" transform="translate(747.457031 0)"/>
      <use xlink:href="#DejaVuSans-2d" transform="translate(808.980469 0)"/>
      <use xlink:href="#DejaVuSans-6c" transform="translate(845.064453 0)"/>
      <use xlink:href="#DejaVuSans-6f" transform="translate(872.847656 0)"/>
      <use xlink:href="#DejaVuSans-6f" transform="translate(934.029297 0)"/>
      <use xlink:href="#DejaVuSans-70" transform="translate(995.210938 0)"/>
      <use xlink:href="#DejaVuSans-20" transform="translate(1058.6875 0)"/>
      <use xlink:href="#DejaVuSans-70" transform="translate(1090.474609 0)"/>
      <use xlink:href="#DejaVuSans-68" transform="translate(1153.951172 0)"/>
      <use xlink:href="#DejaVuSans-79" transform="translate(1217.330078 0)"/>
      <use xlink:href="#DejaVuSans-73" transform="translate(1276.509766 0)"/>
      <use xlink:href="#DejaVuSans-69" transform="translate(1328.609375 0)"/>
      <use xlink:href="#DejaVuSans-63" transform="translate(1356.392578 0)"/>
      <use xlink:href="#DejaVuSans-61" transform="translate(1411.373047 0)"/>
      <use xlink:href="#DejaVuSans-6c" transform="translate(1472.652344 0)"/>
      <use xlink:href="#DejaVuSans-20" transform="translate(1500.435547 0)"/>
      <use xlink:href="#DejaVuSans-6c" transform="translate(1532.222656 0)"/>
      <use xlink:href="#DejaVuSans-61" transform="translate(1560.005859 0)"/>
      <use xlink:href="#DejaVuSans-79" transform="translate(1621.285156 0)"/>
      <use xlink:href="#DejaVuSans-65" transform="translate(1680.464844 0)"/>
      <use xlink:href="#DejaVuSans-72" transform="translate(1741.988281 0)"/>
      <use xlink:href="#DejaVuSans-73" transform="translate(1783.101562 0)"/>
      <use xlink:href="#DejaVuSans-20" transform="translate(1835.201172 0)"/>
      <use xlink:href="#DejaVuSans-28" transform="translate(1866.988281 0)"/>
      <use xlink:href="#DejaVuSans-34" transform="translate(1906.001953 0)"/>
      <use xlink:href="#DejaVuSans-38" transform="translate(1969.625 0)"/>
      <use xlink:href="#DejaVuSans-20" transform="translate(2033.248047 0)"/>
      <use xlink:href="#DejaVuSans-2d" transform="translate(2065.035156 0)"/>
      <use xlink:href="#DejaVuSans-20" transform="translate(2101.119141 0)"/>
      <use xlink:href="#DejaVuSans-6c" transform="translate(2132.90625 0)"/>
      <use xlink:href="#DejaVuSans-61" transform="translate(2160.689453 0)"/>
      <use xlink:href="#DejaVuSans-79" transform="translate(2221.96875 0)"/>
      <use xlink:href="#DejaVuSans-65" transform="translate(2281.148438 0)"/>
      <use xlink:href="#DejaVuSans-72" transform="translate(2342.671875 0)"/>
      <use xlink:href="#DejaVuSans-29" transform="translate(2383.785156 0)"/>
     </g>
    </g>
   </g>
   <g id="matplotlib.axis_2">
    <g id="ytick_1">
     <g id="line2d_10">
      <defs>
       <path id="m284b894614" d="M 0 0 
L -3.5 0 
" style="stroke: #000000; stroke-width: 0.8"/>
      </defs>
      <g>
       <use xlink:href="#m284b894614" x="50.14375" y="232.522916" style="stroke: #000000; stroke-width: 0.8"/>
      </g>
     </g>
     <g id="text_11">
      <!-- 0.30 -->
      <g transform="translate(20.878125 236.322135) scale(0.1 -0.1)">
       <defs>
        <path id="DejaVuSans-2e" d="M 684 794 
L 1344 794 
L 1344 0 
L 684 0 
L 684 794 
z
" transform="scale(0.015625)"/>
       </defs>
       <use xlink:href="#DejaVuSans-30"/>
       <use xlink:href="#DejaVuSans-2e" transform="translate(63.623047 0)"/>
       <use xlink:href="#DejaVuSans-33" transform="translate(95.410156 0)"/>
       <use xlink:href="#DejaVuSans-30" transform="translate(159.033203 0)"/>
      </g>
     </g>
    </g>
    <g id="ytick_2">
     <g id="line2d_11">
      <g>
       <use xlink:href="#m284b894614" x="50.14375" y="203.515059" style="stroke: #000000; stroke-width: 0.8"/>
      </g>
     </g>
     <g id="text_12">
      <!-- 0.35 -->
      <g transform="translate(20.878125 207.314278) scale(0.1 -0.1)">
       <use xlink:href="#DejaVuSans-30"/>
       <use xlink:href="#DejaVuSans-2e" transform="translate(63.623047 0)"/>
       <use xlink:href="#DejaVuSans-33" transform="translate(95.410156 0)"/>
       <use xlink:href="#DejaVuSans-35" transform="translate(159.033203 0)"/>
      </g>
     </g>
    </g>
    <g id="ytick_3">
     <g id="line2d_12">
      <g>
       <use xlink:href="#m284b894614" x="50.14375" y="174.507203" style="stroke: #000000; stroke-width: 0.8"/>
      </g>
     </g>
     <g id="text_13">
      <!-- 0.40 -->
      <g transform="translate(20.878125 178.306421) scale(0.1 -0.1)">
       <use xlink:href="#DejaVuSans-30"/>
       <use xlink:href="#DejaVuSans-2e" transform="translate(63.623047 0)"/>
       <use xlink:href="#DejaVuSans-34" transform="translate(95.410156 0)"/>
       <use xlink:href="#DejaVuSans-30" transform="translate(159.033203 0)"/>
      </g>
     </g>
    </g>
    <g id="ytick_4">
     <g id="line2d_13">
      <g>
       <use xlink:href="#m284b894614" x="50.14375" y="145.499346" style="stroke: #000000; stroke-width: 0.8"/>
      </g>
     </g>
     <g id="text_14">
      <!-- 0.45 -->
      <g transform="translate(20.878125 149.298565) scale(0.1 -0.1)">
       <use xlink:href="#DejaVuSans-30"/>
       <use xlink:href="#DejaVuSans-2e" transform="translate(63.623047 0)"/>
       <use xlink:href="#DejaVuSans-34" transform="translate(95.410156 0)"/>
       <use xlink:href="#DejaVuSans-35" transform="translate(159.033203 0)"/>
      </g>
     </g>
    </g>
    <g id="ytick_5">
     <g id="line2d_14">
      <g>
       <use xlink:href="#m284b894614" x="50.14375" y="116.491489" style="stroke: #000000; stroke-width: 0.8"/>
      </g>
     </g>
     <g id="text_15">
      <!-- 0.50 -->
      <g transform="translate(20.878125 120.290708) scale(0.1 -0.1)">
       <use xlink:href="#DejaVuSans-30"/>
       <use xlink:href="#DejaVuSans-2e" transform="translate(63.623047 0)"/>
       <use xlink:href="#DejaVuSans-35" transform="translate(95.410156 0)"/>
       <use xlink:href="#DejaVuSans-30" transform="translate(159.033203 0)"/>
      </g>
     </g>
    </g>
    <g id="ytick_6">
     <g id="line2d_15">
      <g>
       <use xlink:href="#m284b894614" x="50.14375" y="87.483632" style="stroke: #000000; stroke-width: 0.8"/>
      </g>
     </g>
     <g id="text_16">
      <!-- 0.55 -->
      <g transform="translate(20.878125 91.282851) scale(0.1 -0.1)">
       <use xlink:href="#DejaVuSans-30"/>
       <use xlink:href="#DejaVuSans-2e" transform="translate(63.623047 0)"/>
       <use xlink:href="#DejaVuSans-35" transform="translate(95.410156 0)"/>
       <use xlink:href="#DejaVuSans-35" transform="translate(159.033203 0)"/>
      </g>
     </g>
    </g>
    <g id="ytick_7">
     <g id="line2d_16">
      <g>
       <use xlink:href="#m284b894614" x="50.14375" y="58.475776" style="stroke: #000000; stroke-width: 0.8"/>
      </g>
     </g>
     <g id="text_17">
      <!-- 0.60 -->
      <g transform="translate(20.878125 62.274994) scale(0.1 -0.1)">
       <defs>
        <path id="DejaVuSans-36" d="M 2113 2584 
Q 1688 2584 1439 2293 
Q 1191 2003 1191 1497 
Q 1191 994 1439 701 
Q 1688 409 2113 409 
Q 2538 409 2786 701 
Q 3034 994 3034 1497 
Q 3034 2003 2786 2293 
Q 2538 2584 2113 2584 
z
M 3366 4563 
L 3366 3988 
Q 3128 4100 2886 4159 
Q 2644 4219 2406 4219 
Q 1781 4219 1451 3797 
Q 1122 3375 1075 2522 
Q 1259 2794 1537 2939 
Q 1816 3084 2150 3084 
Q 2853 3084 3261 2657 
Q 3669 2231 3669 1497 
Q 3669 778 3244 343 
Q 2819 -91 2113 -91 
Q 1303 -91 875 529 
Q 447 1150 447 2328 
Q 447 3434 972 4092 
Q 1497 4750 2381 4750 
Q 2619 4750 2861 4703 
Q 3103 4656 3366 4563 
z
" transform="scale(0.015625)"/>
       </defs>
       <use xlink:href="#DejaVuSans-30"/>
       <use xlink:href="#DejaVuSans-2e" transform="translate(63.623047 0)"/>
       <use xlink:href="#DejaVuSans-36" transform="translate(95.410156 0)"/>
       <use xlink:href="#DejaVuSans-30" transform="translate(159.033203 0)"/>
      </g>
     </g>
    </g>
    <g id="ytick_8">
     <g id="line2d_17">
      <g>
       <use xlink:href="#m284b894614" x="50.14375" y="29.467919" style="stroke: #000000; stroke-width: 0.8"/>
      </g>
     </g>
     <g id="text_18">
      <!-- 0.65 -->
      <g transform="translate(20.878125 33.267138) scale(0.1 -0.1)">
       <use xlink:href="#DejaVuSans-30"/>
       <use xlink:href="#DejaVuSans-2e" transform="translate(63.623047 0)"/>
       <use xlink:href="#DejaVuSans-36" transform="translate(95.410156 0)"/>
       <use xlink:href="#DejaVuSans-35" transform="translate(159.033203 0)"/>
      </g>
     </g>
    </g>
    <g id="text_19">
     <!-- local-refit macro top-1 (heldout) -->
     <g transform="translate(14.798438 217.3365) rotate(-90) scale(0.1 -0.1)">
      <defs>
       <path id="DejaVuSans-66" d="M 2375 4863 
L 2375 4384 
L 1825 4384 
Q 1516 4384 1395 4259 
Q 1275 4134 1275 3809 
L 1275 3500 
L 2222 3500 
L 2222 3053 
L 1275 3053 
L 1275 0 
L 697 0 
L 697 3053 
L 147 3053 
L 147 3500 
L 697 3500 
L 697 3744 
Q 697 4328 969 4595 
Q 1241 4863 1831 4863 
L 2375 4863 
z
" transform="scale(0.015625)"/>
       <path id="DejaVuSans-74" d="M 1172 4494 
L 1172 3500 
L 2356 3500 
L 2356 3053 
L 1172 3053 
L 1172 1153 
Q 1172 725 1289 603 
Q 1406 481 1766 481 
L 2356 481 
L 2356 0 
L 1766 0 
Q 1100 0 847 248 
Q 594 497 594 1153 
L 594 3053 
L 172 3053 
L 172 3500 
L 594 3500 
L 594 4494 
L 1172 4494 
z
" transform="scale(0.015625)"/>
       <path id="DejaVuSans-64" d="M 2906 2969 
L 2906 4863 
L 3481 4863 
L 3481 0 
L 2906 0 
L 2906 525 
Q 2725 213 2448 61 
Q 2172 -91 1784 -91 
Q 1150 -91 751 415 
Q 353 922 353 1747 
Q 353 2572 751 3078 
Q 1150 3584 1784 3584 
Q 2172 3584 2448 3432 
Q 2725 3281 2906 2969 
z
M 947 1747 
Q 947 1113 1208 752 
Q 1469 391 1925 391 
Q 2381 391 2643 752 
Q 2906 1113 2906 1747 
Q 2906 2381 2643 2742 
Q 2381 3103 1925 3103 
Q 1469 3103 1208 2742 
Q 947 2381 947 1747 
z
" transform="scale(0.015625)"/>
       <path id="DejaVuSans-75" d="M 544 1381 
L 544 3500 
L 1119 3500 
L 1119 1403 
Q 1119 906 1312 657 
Q 1506 409 1894 409 
Q 2359 409 2629 706 
Q 2900 1003 2900 1516 
L 2900 3500 
L 3475 3500 
L 3475 0 
L 2900 0 
L 2900 538 
Q 2691 219 2414 64 
Q 2138 -91 1772 -91 
Q 1169 -91 856 284 
Q 544 659 544 1381 
z
M 1991 3584 
L 1991 3584 
z
" transform="scale(0.015625)"/>
      </defs>
      <use xlink:href="#DejaVuSans-6c"/>
      <use xlink:href="#DejaVuSans-6f" transform="translate(27.783203 0)"/>
      <use xlink:href="#DejaVuSans-63" transform="translate(88.964844 0)"/>
      <use xlink:href="#DejaVuSans-61" transform="translate(143.945312 0)"/>
      <use xlink:href="#DejaVuSans-6c" transform="translate(205.224609 0)"/>
      <use xlink:href="#DejaVuSans-2d" transform="translate(233.007812 0)"/>
      <use xlink:href="#DejaVuSans-72" transform="translate(269.091797 0)"/>
      <use xlink:href="#DejaVuSans-65" transform="translate(307.955078 0)"/>
      <use xlink:href="#DejaVuSans-66" transform="translate(369.478516 0)"/>
      <use xlink:href="#DejaVuSans-69" transform="translate(404.683594 0)"/>
      <use xlink:href="#DejaVuSans-74" transform="translate(432.466797 0)"/>
      <use xlink:href="#DejaVuSans-20" transform="translate(471.675781 0)"/>
      <use xlink:href="#DejaVuSans-6d" transform="translate(503.462891 0)"/>
      <use xlink:href="#DejaVuSans-61" transform="translate(600.875 0)"/>
      <use xlink:href="#DejaVuSans-63" transform="translate(662.154297 0)"/>
      <use xlink:href="#DejaVuSans-72" transform="translate(717.134766 0)"/>
      <use xlink:href="#DejaVuSans-6f" transform="translate(755.998047 0)"/>
      <use xlink:href="#DejaVuSans-20" transform="translate(817.179688 0)"/>
      <use xlink:href="#DejaVuSans-74" transform="translate(848.966797 0)"/>
      <use xlink:href="#DejaVuSans-6f" transform="translate(888.175781 0)"/>
      <use xlink:href="#DejaVuSans-70" transform="translate(949.357422 0)"/>
      <use xlink:href="#DejaVuSans-2d" transform="translate(1012.833984 0)"/>
      <use xlink:href="#DejaVuSans-31" transform="translate(1048.917969 0)"/>
      <use xlink:href="#DejaVuSans-20" transform="translate(1112.541016 0)"/>
      <use xlink:href="#DejaVuSans-28" transform="translate(1144.328125 0)"/>
      <use xlink:href="#DejaVuSans-68" transform="translate(1183.341797 0)"/>
      <use xlink:href="#DejaVuSans-65" transform="translate(1246.720703 0)"/>
      <use xlink:href="#DejaVuSans-6c" transform="translate(1308.244141 0)"/>
      <use xlink:href="#DejaVuSans-64" transform="translate(1336.027344 0)"/>
      <use xlink:href="#DejaVuSans-6f" transform="translate(1399.503906 0)"/>
      <use xlink:href="#DejaVuSans-75" transform="translate(1460.685547 0)"/>
      <use xlink:href="#DejaVuSans-74" transform="translate(1524.064453 0)"/>
      <use xlink:href="#DejaVuSans-29" transform="translate(1563.273438 0)"/>
     </g>
    </g>
   </g>
   <g id="line2d_18">
    <path d="M 50.14375 243.062438 
L 429.58375 243.062438 
" clip-path="url(#pd8b17f326f)" style="fill: none; stroke-dasharray: 3.7,1.6; stroke-dashoffset: 0; stroke: #808080"/>
   </g>
   <g id="patch_3">
    <path d="M 50.14375 253.646438 
L 50.14375 20.798437 
" style="fill: none; stroke: #000000; stroke-width: 0.8; stroke-linejoin: miter; stroke-linecap: square"/>
   </g>
   <g id="patch_4">
    <path d="M 429.58375 253.646438 
L 429.58375 20.798437 
" style="fill: none; stroke: #000000; stroke-width: 0.8; stroke-linejoin: miter; stroke-linecap: square"/>
   </g>
   <g id="patch_5">
    <path d="M 50.14375 253.646438 
L 429.58375 253.646438 
" style="fill: none; stroke: #000000; stroke-width: 0.8; stroke-linejoin: miter; stroke-linecap: square"/>
   </g>
   <g id="patch_6">
    <path d="M 50.14375 20.798437 
L 429.58375 20.798437 
" style="fill: none; stroke: #000000; stroke-width: 0.8; stroke-linejoin: miter; stroke-linecap: square"/>
   </g>
   <g id="PathCollection_5">
    <defs>
     <path id="m2384285d27" d="M 0 3.708099 
C 0.983399 3.708099 1.926654 3.317391 2.622022 2.622022 
C 3.317391 1.926654 3.708099 0.983399 3.708099 0 
C 3.708099 -0.983399 3.317391 -1.926654 2.622022 -2.622022 
C 1.926654 -3.317391 0.983399 -3.708099 0 -3.708099 
C -0.983399 -3.708099 -1.926654 -3.317391 -2.622022 -2.622022 
C -3.317391 -1.926654 -3.708099 -0.983399 -3.708099 0 
C -3.708099 0.983399 -3.317391 1.926654 -2.622022 2.622022 
C -1.926654 3.317391 -0.983399 3.708099 0 3.708099 
z
" style="stroke: #440154"/>
    </defs>
    <g clip-path="url(#pd8b17f326f)">
     <use xlink:href="#m2384285d27" x="412.336477" y="168.705631" style="fill: #440154; stroke: #440154"/>
    </g>
   </g>
   <g id="text_20">
    <!-- 8_L1 -->
    <g transform="translate(417.336477 164.705631) scale(0.07 -0.07)">
     <defs>
      <path id="DejaVuSans-5f" d="M 3263 -1063 
L 3263 -1509 
L -63 -1509 
L -63 -1063 
L 3263 -1063 
z
" transform="scale(0.015625)"/>
      <path id="DejaVuSans-4c" d="M 628 4666 
L 1259 4666 
L 1259 531 
L 3531 531 
L 3531 0 
L 628 0 
L 628 4666 
z
" transform="scale(0.015625)"/>
     </defs>
     <use xlink:href="#DejaVuSans-38"/>
     <use xlink:href="#DejaVuSans-5f" transform="translate(63.623047 0)"/>
     <use xlink:href="#DejaVuSans-4c" transform="translate(113.623047 0)"/>
     <use xlink:href="#DejaVuSans-31" transform="translate(169.335938 0)"/>
    </g>
   </g>
   <g id="PathCollection_6">
    <defs>
     <path id="m73ee0df70b" d="M -3.708099 3.708099 
L 3.708099 3.708099 
L 3.708099 -3.708099 
L -3.708099 -3.708099 
z
" style="stroke: #31688e"/>
    </defs>
    <g clip-path="url(#pd8b17f326f)">
     <use xlink:href="#m73ee0df70b" x="412.336477" y="76.866757" style="fill: #31688e; stroke: #31688e"/>
    </g>
   </g>
   <g id="text_21">
    <!-- 8_L2 -->
    <g transform="translate(417.336477 72.866757) scale(0.07 -0.07)">
     <use xlink:href="#DejaVuSans-38"/>
     <use xlink:href="#DejaVuSans-5f" transform="translate(63.623047 0)"/>
     <use xlink:href="#DejaVuSans-4c" transform="translate(113.623047 0)"/>
     <use xlink:href="#DejaVuSans-32" transform="translate(169.335938 0)"/>
    </g>
   </g>
   <g id="PathCollection_7">
    <defs>
     <path id="m944501b85e" d="M 0 -3.708099 
L -3.708099 3.708099 
L 3.708099 3.708099 
z
" style="stroke: #35b779"/>
    </defs>
    <g clip-path="url(#pd8b17f326f)">
     <use xlink:href="#m944501b85e" x="412.336477" y="39.156543" style="fill: #35b779; stroke: #35b779"/>
    </g>
   </g>
   <g id="text_22">
    <!-- 8_L3 -->
    <g transform="translate(417.336477 35.156543) scale(0.07 -0.07)">
     <use xlink:href="#DejaVuSans-38"/>
     <use xlink:href="#DejaVuSans-5f" transform="translate(63.623047 0)"/>
     <use xlink:href="#DejaVuSans-4c" transform="translate(113.623047 0)"/>
     <use xlink:href="#DejaVuSans-33" transform="translate(169.335938 0)"/>
    </g>
   </g>
   <g id="PathCollection_8">
    <defs>
     <path id="m0fe3d08bed" d="M -0 5.244044 
L 5.244044 0 
L 0 -5.244044 
L -5.244044 -0 
z
" style="stroke: #fde725"/>
    </defs>
    <g clip-path="url(#pd8b17f326f)">
     <use xlink:href="#m0fe3d08bed" x="412.336477" y="45.886366" style="fill: #fde725; stroke: #fde725"/>
    </g>
   </g>
   <g id="text_23">
    <!-- 8_L4 -->
    <g transform="translate(417.336477 41.886366) scale(0.07 -0.07)">
     <use xlink:href="#DejaVuSans-38"/>
     <use xlink:href="#DejaVuSans-5f" transform="translate(63.623047 0)"/>
     <use xlink:href="#DejaVuSans-4c" transform="translate(113.623047 0)"/>
     <use xlink:href="#DejaVuSans-34" transform="translate(169.335938 0)"/>
    </g>
   </g>
   <g id="PathCollection_9">
    <g clip-path="url(#pd8b17f326f)">
     <use xlink:href="#m2384285d27" x="341.578435" y="151.300917" style="fill: #440154; stroke: #440154"/>
    </g>
   </g>
   <g id="text_24">
    <!-- 16_L1 -->
    <g transform="translate(346.578435 147.300917) scale(0.07 -0.07)">
     <use xlink:href="#DejaVuSans-31"/>
     <use xlink:href="#DejaVuSans-36" transform="translate(63.623047 0)"/>
     <use xlink:href="#DejaVuSans-5f" transform="translate(127.246094 0)"/>
     <use xlink:href="#DejaVuSans-4c" transform="translate(177.246094 0)"/>
     <use xlink:href="#DejaVuSans-31" transform="translate(232.958984 0)"/>
    </g>
   </g>
   <g id="PathCollection_10">
    <g clip-path="url(#pd8b17f326f)">
     <use xlink:href="#m73ee0df70b" x="341.578435" y="68.1644" style="fill: #31688e; stroke: #31688e"/>
    </g>
   </g>
   <g id="text_25">
    <!-- 16_L2 -->
    <g transform="translate(346.578435 64.1644) scale(0.07 -0.07)">
     <use xlink:href="#DejaVuSans-31"/>
     <use xlink:href="#DejaVuSans-36" transform="translate(63.623047 0)"/>
     <use xlink:href="#DejaVuSans-5f" transform="translate(127.246094 0)"/>
     <use xlink:href="#DejaVuSans-4c" transform="translate(177.246094 0)"/>
     <use xlink:href="#DejaVuSans-32" transform="translate(232.958984 0)"/>
    </g>
   </g>
   <g id="PathCollection_11">
    <g clip-path="url(#pd8b17f326f)">
     <use xlink:href="#m944501b85e" x="341.578435" y="48.787152" style="fill: #35b779; stroke: #35b779"/>
    </g>
   </g>
   <g id="text_26">
    <!-- 16_L3 -->
    <g transform="translate(346.578435 44.787152) scale(0.07 -0.07)">
     <use xlink:href="#DejaVuSans-31"/>
     <use xlink:href="#DejaVuSans-36" transform="translate(63.623047 0)"/>
     <use xlink:href="#DejaVuSans-5f" transform="translate(127.246094 0)"/>
     <use xlink:href="#DejaVuSans-4c" transform="translate(177.246094 0)"/>
     <use xlink:href="#DejaVuSans-33" transform="translate(232.958984 0)"/>
    </g>
   </g>
   <g id="PathCollection_12">
    <g clip-path="url(#pd8b17f326f)">
     <use xlink:href="#m0fe3d08bed" x="341.578435" y="42.057329" style="fill: #fde725; stroke: #fde725"/>
    </g>
   </g>
   <g id="text_27">
    <!-- 16_L4 -->
    <g transform="translate(346.578435 38.057329) scale(0.07 -0.07)">
     <use xlink:href="#DejaVuSans-31"/>
     <use xlink:href="#DejaVuSans-36" transform="translate(63.623047 0)"/>
     <use xlink:href="#DejaVuSans-5f" transform="translate(127.246094 0)"/>
     <use xlink:href="#DejaVuSans-4c" transform="translate(177.246094 0)"/>
     <use xlink:href="#DejaVuSans-34" transform="translate(232.958984 0)"/>
    </g>
   </g>
   <g id="PathCollection_13">
    <g clip-path="url(#pd8b17f326f)">
     <use xlink:href="#m2384285d27" x="270.820393" y="158.088756" style="fill: #440154; stroke: #440154"/>
    </g>
   </g>
   <g id="text_28">
    <!-- 24_L1 -->
    <g transform="translate(275.820393 154.088756) scale(0.07 -0.07)">
     <use xlink:href="#DejaVuSans-32"/>
     <use xlink:href="#DejaVuSans-34" transform="translate(63.623047 0)"/>
     <use xlink:href="#DejaVuSans-5f" transform="translate(127.246094 0)"/>
     <use xlink:href="#DejaVuSans-4c" transform="translate(177.246094 0)"/>
     <use xlink:href="#DejaVuSans-31" transform="translate(232.958984 0)"/>
    </g>
   </g>
   <g id="PathCollection_14">
    <g clip-path="url(#pd8b17f326f)">
     <use xlink:href="#m73ee0df70b" x="270.820393" y="76.866757" style="fill: #31688e; stroke: #31688e"/>
    </g>
   </g>
   <g id="text_29">
    <!-- 24_L2 -->
    <g transform="translate(275.820393 72.866757) scale(0.07 -0.07)">
     <use xlink:href="#DejaVuSans-32"/>
     <use xlink:href="#DejaVuSans-34" transform="translate(63.623047 0)"/>
     <use xlink:href="#DejaVuSans-5f" transform="translate(127.246094 0)"/>
     <use xlink:href="#DejaVuSans-4c" transform="translate(177.246094 0)"/>
     <use xlink:href="#DejaVuSans-32" transform="translate(232.958984 0)"/>
    </g>
   </g>
   <g id="PathCollection_15">
    <g clip-path="url(#pd8b17f326f)">
     <use xlink:href="#m944501b85e" x="270.820393" y="52.674204" style="fill: #35b779; stroke: #35b779"/>
    </g>
   </g>
   <g id="text_30">
    <!-- 24_L3 -->
    <g transform="translate(275.820393 48.674204) scale(0.07 -0.07)">
     <use xlink:href="#DejaVuSans-32"/>
     <use xlink:href="#DejaVuSans-34" transform="translate(63.623047 0)"/>
     <use xlink:href="#DejaVuSans-5f" transform="translate(127.246094 0)"/>
     <use xlink:href="#DejaVuSans-4c" transform="translate(177.246094 0)"/>
     <use xlink:href="#DejaVuSans-33" transform="translate(232.958984 0)"/>
    </g>
   </g>
   <g id="PathCollection_16">
    <g clip-path="url(#pd8b17f326f)">
     <use xlink:href="#m0fe3d08bed" x="270.820393" y="47.8589" style="fill: #fde725; stroke: #fde725"/>
    </g>
   </g>
   <g id="text_31">
    <!-- 24_L4 -->
    <g transform="translate(275.820393 43.8589) scale(0.07 -0.07)">
     <use xlink:href="#DejaVuSans-32"/>
     <use xlink:href="#DejaVuSans-34" transform="translate(63.623047 0)"/>
     <use xlink:href="#DejaVuSans-5f" transform="translate(127.246094 0)"/>
     <use xlink:href="#DejaVuSans-4c" transform="translate(177.246094 0)"/>
     <use xlink:href="#DejaVuSans-34" transform="translate(232.958984 0)"/>
    </g>
   </g>
   <g id="PathCollection_17">
    <g clip-path="url(#pd8b17f326f)">
     <use xlink:href="#m0fe3d08bed" x="164.68333" y="31.382438" style="fill: #fde725; stroke: #fde725"/>
    </g>
   </g>
   <g id="text_32">
    <!-- 36_L4 -->
    <g transform="translate(169.68333 27.382438) scale(0.07 -0.07)">
     <use xlink:href="#DejaVuSans-33"/>
     <use xlink:href="#DejaVuSans-36" transform="translate(63.623047 0)"/>
     <use xlink:href="#DejaVuSans-5f" transform="translate(127.246094 0)"/>
     <use xlink:href="#DejaVuSans-4c" transform="translate(177.246094 0)"/>
     <use xlink:href="#DejaVuSans-34" transform="translate(232.958984 0)"/>
    </g>
   </g>
   <g id="PathCollection_18">
    <g clip-path="url(#pd8b17f326f)">
     <use xlink:href="#m0fe3d08bed" x="67.391023" y="46.872633" style="fill: #fde725; stroke: #fde725"/>
    </g>
   </g>
   <g id="text_33">
    <!-- 47_L4 -->
    <g transform="translate(72.391023 42.872633) scale(0.07 -0.07)">
     <defs>
      <path id="DejaVuSans-37" d="M 525 4666 
L 3525 4666 
L 3525 4397 
L 1831 0 
L 1172 0 
L 2766 4134 
L 525 4134 
L 525 4666 
z
" transform="scale(0.015625)"/>
     </defs>
     <use xlink:href="#DejaVuSans-34"/>
     <use xlink:href="#DejaVuSans-37" transform="translate(63.623047 0)"/>
     <use xlink:href="#DejaVuSans-5f" transform="translate(127.246094 0)"/>
     <use xlink:href="#DejaVuSans-4c" transform="translate(177.246094 0)"/>
     <use xlink:href="#DejaVuSans-34" transform="translate(232.958984 0)"/>
    </g>
   </g>
   <g id="text_34">
    <!-- Readability vs remaining downstream depth -->
    <g transform="translate(129.246563 14.798437) scale(0.1 -0.1)">
     <defs>
      <path id="DejaVuSans-52" d="M 2841 2188 
Q 3044 2119 3236 1894 
Q 3428 1669 3622 1275 
L 4263 0 
L 3584 0 
L 2988 1197 
Q 2756 1666 2539 1819 
Q 2322 1972 1947 1972 
L 1259 1972 
L 1259 0 
L 628 0 
L 628 4666 
L 2053 4666 
Q 2853 4666 3247 4331 
Q 3641 3997 3641 3322 
Q 3641 2881 3436 2590 
Q 3231 2300 2841 2188 
z
M 1259 4147 
L 1259 2491 
L 2053 2491 
Q 2509 2491 2742 2702 
Q 2975 2913 2975 3322 
Q 2975 3731 2742 3939 
Q 2509 4147 2053 4147 
L 1259 4147 
z
" transform="scale(0.015625)"/>
      <path id="DejaVuSans-62" d="M 3116 1747 
Q 3116 2381 2855 2742 
Q 2594 3103 2138 3103 
Q 1681 3103 1420 2742 
Q 1159 2381 1159 1747 
Q 1159 1113 1420 752 
Q 1681 391 2138 391 
Q 2594 391 2855 752 
Q 3116 1113 3116 1747 
z
M 1159 2969 
Q 1341 3281 1617 3432 
Q 1894 3584 2278 3584 
Q 2916 3584 3314 3078 
Q 3713 2572 3713 1747 
Q 3713 922 3314 415 
Q 2916 -91 2278 -91 
Q 1894 -91 1617 61 
Q 1341 213 1159 525 
L 1159 0 
L 581 0 
L 581 4863 
L 1159 4863 
L 1159 2969 
z
" transform="scale(0.015625)"/>
      <path id="DejaVuSans-76" d="M 191 3500 
L 800 3500 
L 1894 563 
L 2988 3500 
L 3597 3500 
L 2284 0 
L 1503 0 
L 191 3500 
z
" transform="scale(0.015625)"/>
      <path id="DejaVuSans-77" d="M 269 3500 
L 844 3500 
L 1563 769 
L 2278 3500 
L 2956 3500 
L 3675 769 
L 4391 3500 
L 4966 3500 
L 4050 0 
L 3372 0 
L 2619 2869 
L 1863 0 
L 1184 0 
L 269 3500 
z
" transform="scale(0.015625)"/>
     </defs>
     <use xlink:href="#DejaVuSans-52"/>
     <use xlink:href="#DejaVuSans-65" transform="translate(64.982422 0)"/>
     <use xlink:href="#DejaVuSans-61" transform="translate(126.505859 0)"/>
     <use xlink:href="#DejaVuSans-64" transform="translate(187.785156 0)"/>
     <use xlink:href="#DejaVuSans-61" transform="translate(251.261719 0)"/>
     <use xlink:href="#DejaVuSans-62" transform="translate(312.541016 0)"/>
     <use xlink:href="#DejaVuSans-69" transform="translate(376.017578 0)"/>
     <use xlink:href="#DejaVuSans-6c" transform="translate(403.800781 0)"/>
     <use xlink:href="#DejaVuSans-69" transform="translate(431.583984 0)"/>
     <use xlink:href="#DejaVuSans-74" transform="translate(459.367188 0)"/>
     <use xlink:href="#DejaVuSans-79" transform="translate(498.576172 0)"/>
     <use xlink:href="#DejaVuSans-20" transform="translate(557.755859 0)"/>
     <use xlink:href="#DejaVuSans-76" transform="translate(589.542969 0)"/>
     <use xlink:href="#DejaVuSans-73" transform="translate(648.722656 0)"/>
     <use xlink:href="#DejaVuSans-20" transform="translate(700.822266 0)"/>
     <use xlink:href="#DejaVuSans-72" transform="translate(732.609375 0)"/>
     <use xlink:href="#DejaVuSans-65" transform="translate(771.472656 0)"/>
     <use xlink:href="#DejaVuSans-6d" transform="translate(832.996094 0)"/>
     <use xlink:href="#DejaVuSans-61" transform="translate(930.408203 0)"/>
     <use xlink:href="#DejaVuSans-69" transform="translate(991.6875 0)"/>
     <use xlink:href="#DejaVuSans-6e" transform="translate(1019.470703 0)"/>
     <use xlink:href="#DejaVuSans-69" transform="translate(1082.849609 0)"/>
     <use xlink:href="#DejaVuSans-6e" transform="translate(1110.632812 0)"/>
     <use xlink:href="#DejaVuSans-67" transform="translate(1174.011719 0)"/>
     <use xlink:href="#DejaVuSans-20" transform="translate(1237.488281 0)"/>
     <use xlink:href="#DejaVuSans-64" transform="translate(1269.275391 0)"/>
     <use xlink:href="#DejaVuSans-6f" transform="translate(1332.751953 0)"/>
     <use xlink:href="#DejaVuSans-77" transform="translate(1393.933594 0)"/>
     <use xlink:href="#DejaVuSans-6e" transform="translate(1475.720703 0)"/>
     <use xlink:href="#DejaVuSans-73" transform="translate(1539.099609 0)"/>
     <use xlink:href="#DejaVuSans-74" transform="translate(1591.199219 0)"/>
     <use xlink:href="#DejaVuSans-72" transform="translate(1630.408203 0)"/>
     <use xlink:href="#DejaVuSans-65" transform="translate(1669.271484 0)"/>
     <use xlink:href="#DejaVuSans-61" transform="translate(1730.794922 0)"/>
     <use xlink:href="#DejaVuSans-6d" transform="translate(1792.074219 0)"/>
     <use xlink:href="#DejaVuSans-20" transform="translate(1889.486328 0)"/>
     <use xlink:href="#DejaVuSans-64" transform="translate(1921.273438 0)"/>
     <use xlink:href="#DejaVuSans-65" transform="translate(1984.75 0)"/>
     <use xlink:href="#DejaVuSans-70" transform="translate(2046.273438 0)"/>
     <use xlink:href="#DejaVuSans-74" transform="translate(2109.75 0)"/>
     <use xlink:href="#DejaVuSans-68" transform="translate(2148.958984 0)"/>
    </g>
   </g>
   <g id="legend_1">
    <g id="patch_7">
     <path d="M 55.74375 249.646438 
L 173.395 249.646438 
Q 174.995 249.646438 174.995 248.046438 
L 174.995 190.133938 
Q 174.995 188.533938 173.395 188.533938 
L 55.74375 188.533938 
Q 54.14375 188.533938 54.14375 190.133938 
L 54.14375 248.046438 
Q 54.14375 249.646438 55.74375 249.646438 
z
" style="fill: #ffffff; opacity: 0.8; stroke: #cccccc; stroke-linejoin: miter"/>
    </g>
    <g id="line2d_19">
     <path d="M 57.34375 195.012687 
L 65.34375 195.012687 
L 73.34375 195.012687 
" style="fill: none; stroke-dasharray: 3.7,1.6; stroke-dashoffset: 0; stroke: #808080"/>
    </g>
    <g id="text_35">
     <!-- matched chance 0.282 -->
     <g transform="translate(79.74375 197.812688) scale(0.08 -0.08)">
      <use xlink:href="#DejaVuSans-6d"/>
      <use xlink:href="#DejaVuSans-61" transform="translate(97.412109 0)"/>
      <use xlink:href="#DejaVuSans-74" transform="translate(158.691406 0)"/>
      <use xlink:href="#DejaVuSans-63" transform="translate(197.900391 0)"/>
      <use xlink:href="#DejaVuSans-68" transform="translate(252.880859 0)"/>
      <use xlink:href="#DejaVuSans-65" transform="translate(316.259766 0)"/>
      <use xlink:href="#DejaVuSans-64" transform="translate(377.783203 0)"/>
      <use xlink:href="#DejaVuSans-20" transform="translate(441.259766 0)"/>
      <use xlink:href="#DejaVuSans-63" transform="translate(473.046875 0)"/>
      <use xlink:href="#DejaVuSans-68" transform="translate(528.027344 0)"/>
      <use xlink:href="#DejaVuSans-61" transform="translate(591.40625 0)"/>
      <use xlink:href="#DejaVuSans-6e" transform="translate(652.685547 0)"/>
      <use xlink:href="#DejaVuSans-63" transform="translate(716.064453 0)"/>
      <use xlink:href="#DejaVuSans-65" transform="translate(771.044922 0)"/>
      <use xlink:href="#DejaVuSans-20" transform="translate(832.568359 0)"/>
      <use xlink:href="#DejaVuSans-30" transform="translate(864.355469 0)"/>
      <use xlink:href="#DejaVuSans-2e" transform="translate(927.978516 0)"/>
      <use xlink:href="#DejaVuSans-32" transform="translate(959.765625 0)"/>
      <use xlink:href="#DejaVuSans-38" transform="translate(1023.388672 0)"/>
      <use xlink:href="#DejaVuSans-32" transform="translate(1087.011719 0)"/>
     </g>
    </g>
    <g id="PathCollection_19">
     <defs>
      <path id="ma57b7c99aa" d="M 0 3 
C 0.795609 3 1.55874 2.683901 2.12132 2.12132 
C 2.683901 1.55874 3 0.795609 3 0 
C 3 -0.795609 2.683901 -1.55874 2.12132 -2.12132 
C 1.55874 -2.683901 0.795609 -3 0 -3 
C -0.795609 -3 -1.55874 -2.683901 -2.12132 -2.12132 
C -2.683901 -1.55874 -3 -0.795609 -3 0 
C -3 0.795609 -2.683901 1.55874 -2.12132 2.12132 
C -1.55874 2.683901 -0.795609 3 0 3 
z
" style="stroke: #440154"/>
     </defs>
     <g>
      <use xlink:href="#ma57b7c99aa" x="65.34375" y="207.455188" style="fill: #440154; stroke: #440154"/>
     </g>
    </g>
    <g id="text_36">
     <!-- loop L1 -->
     <g transform="translate(79.74375 209.555188) scale(0.08 -0.08)">
      <use xlink:href="#DejaVuSans-6c"/>
      <use xlink:href="#DejaVuSans-6f" transform="translate(27.783203 0)"/>
      <use xlink:href="#DejaVuSans-6f" transform="translate(88.964844 0)"/>
      <use xlink:href="#DejaVuSans-70" transform="translate(150.146484 0)"/>
      <use xlink:href="#DejaVuSans-20" transform="translate(213.623047 0)"/>
      <use xlink:href="#DejaVuSans-4c" transform="translate(245.410156 0)"/>
      <use xlink:href="#DejaVuSans-31" transform="translate(301.123047 0)"/>
     </g>
    </g>
    <g id="PathCollection_20">
     <defs>
      <path id="mc28ec8a94a" d="M -3 3 
L 3 3 
L 3 -3 
L -3 -3 
z
" style="stroke: #31688e"/>
     </defs>
     <g>
      <use xlink:href="#mc28ec8a94a" x="65.34375" y="219.197688" style="fill: #31688e; stroke: #31688e"/>
     </g>
    </g>
    <g id="text_37">
     <!-- loop L2 -->
     <g transform="translate(79.74375 221.297687) scale(0.08 -0.08)">
      <use xlink:href="#DejaVuSans-6c"/>
      <use xlink:href="#DejaVuSans-6f" transform="translate(27.783203 0)"/>
      <use xlink:href="#DejaVuSans-6f" transform="translate(88.964844 0)"/>
      <use xlink:href="#DejaVuSans-70" transform="translate(150.146484 0)"/>
      <use xlink:href="#DejaVuSans-20" transform="translate(213.623047 0)"/>
      <use xlink:href="#DejaVuSans-4c" transform="translate(245.410156 0)"/>
      <use xlink:href="#DejaVuSans-32" transform="translate(301.123047 0)"/>
     </g>
    </g>
    <g id="PathCollection_21">
     <defs>
      <path id="md367890b52" d="M 0 -3 
L -3 3 
L 3 3 
z
" style="stroke: #35b779"/>
     </defs>
     <g>
      <use xlink:href="#md367890b52" x="65.34375" y="230.940188" style="fill: #35b779; stroke: #35b779"/>
     </g>
    </g>
    <g id="text_38">
     <!-- loop L3 -->
     <g transform="translate(79.74375 233.040188) scale(0.08 -0.08)">
      <use xlink:href="#DejaVuSans-6c"/>
      <use xlink:href="#DejaVuSans-6f" transform="translate(27.783203 0)"/>
      <use xlink:href="#DejaVuSans-6f" transform="translate(88.964844 0)"/>
      <use xlink:href="#DejaVuSans-70" transform="translate(150.146484 0)"/>
      <use xlink:href="#DejaVuSans-20" transform="translate(213.623047 0)"/>
      <use xlink:href="#DejaVuSans-4c" transform="translate(245.410156 0)"/>
      <use xlink:href="#DejaVuSans-33" transform="translate(301.123047 0)"/>
     </g>
    </g>
    <g id="PathCollection_22">
     <defs>
      <path id="md80f9f9404" d="M -0 4.242641 
L 4.242641 0 
L 0 -4.242641 
L -4.242641 -0 
z
" style="stroke: #fde725"/>
     </defs>
     <g>
      <use xlink:href="#md80f9f9404" x="65.34375" y="242.682688" style="fill: #fde725; stroke: #fde725"/>
     </g>
    </g>
    <g id="text_39">
     <!-- loop L4 -->
     <g transform="translate(79.74375 244.782688) scale(0.08 -0.08)">
      <use xlink:href="#DejaVuSans-6c"/>
      <use xlink:href="#DejaVuSans-6f" transform="translate(27.783203 0)"/>
      <use xlink:href="#DejaVuSans-6f" transform="translate(88.964844 0)"/>
      <use xlink:href="#DejaVuSans-70" transform="translate(150.146484 0)"/>
      <use xlink:href="#DejaVuSans-20" transform="translate(213.623047 0)"/>
      <use xlink:href="#DejaVuSans-4c" transform="translate(245.410156 0)"/>
      <use xlink:href="#DejaVuSans-34" transform="translate(301.123047 0)"/>
     </g>
    </g>
   </g>
  </g>
 </g>
 <defs>
  <clipPath id="pd8b17f326f">
   <rect x="50.14375" y="20.798437" width="379.44" height="232.848"/>
  </clipPath>
 </defs>
</svg>
